<svg id="Layer_1" data-name="Layer 1" xmlns="http://www.w3.org/2000/svg" viewBox="0 0 34 50"><defs><style>.cls-1{fill:#de5c8e;}</style></defs><title>logo-chula-symbol</title><path class="cls-1" d="M15,13.26l-8.7,20v2.21l1.56-1.7,7.42-20.37Z"/><path class="cls-1" d="M14.34,12.92,4.64,30,4.2,32.42,6,30.74,14.6,13.09Z"/><path class="cls-1" d="M13.85,12.54,3.28,26l-.94,2.57,2.12-1.41L14,12.69Z"/><path class="cls-1" d="M13.35,12l-11,10.1-.83,2.14,1.77-.71L13.56,12.24Z"/><path class="cls-1" d="M13,11.43,2.48,17.92,1.33,19.57,3,19.3l10.17-7.58C13.1,11.63,13,11.53,13,11.43Z"/><path class="cls-1" d="M12.75,10.8,3,14.53,1.64,15.85l1.87-.1,9.34-4.65C12.81,11,12.78,10.91,12.75,10.8Z"/><path class="cls-1" d="M12.61,10.13,4,11.53l-1.45.91,1.64.32,8.48-2.34C12.63,10.33,12.62,10.23,12.61,10.13Z"/><path class="cls-1" d="M4.86,9.09l-1.13.45L4.87,10l7.71-.34c0-.08,0-.16,0-.24Z"/><path class="cls-1" d="M5.06,7.66l1.18.67L12.65,9c0-.1,0-.2.06-.29L6.46,7.35Z"/><path class="cls-1" d="M7.81,5.75H6.35l1.1.88,5.42,1.65L13,8Z"/><path class="cls-1" d="M9,4.36,8,4.29l.49.87L13.2,7.62l.14-.2Z"/><path class="cls-1" d="M10.45,3.35l-1-.24.3.94,3.89,3,.18-.18Z"/><path class="cls-1" d="M14.19,6.57l.23-.15L11.88,2.35l-.94-.45.14,1Z"/><path class="cls-1" d="M15.11,6.07,13.45,1.54,12.63,1l-.08,1,2.33,4.2Z"/><path class="cls-1" d="M15.63,5.91l.27-.06-.69-4.73L14.53.38l-.25,1Z"/><path class="cls-1" d="M16.6,5.79h.14L17.08.89,16.6,0l-.47.86.34,4.94Z"/><path class="cls-1" d="M18.25,13.26l-.28.11,7.42,20.37L27,35.44V33.23Z"/><path class="cls-1" d="M18.87,12.92l-.26.16,8.64,17.66L29,32.42,28.57,30Z"/><path class="cls-1" d="M19.36,12.54l-.18.15,9.57,14.45,2.12,1.41L29.93,26Z"/><path class="cls-1" d="M29.91,23.53l1.77.71-.83-2.14L19.86,12l-.2.25Z"/><path class="cls-1" d="M30.21,19.3l1.66.27-1.14-1.65L20.21,11.43c-.05.1-.11.2-.17.3Z"/><path class="cls-1" d="M29.7,15.75l1.87.1-1.35-1.32L20.46,10.8c0,.11-.06.2-.1.3Z"/><path class="cls-1" d="M30.67,12.44l-1.45-.91L20.6,10.13c0,.1,0,.19,0,.29L29,12.76Z"/><path class="cls-1" d="M28.34,10l1.14-.47-1.13-.45-7.73.34c0,.08,0,.16,0,.24Z"/><path class="cls-1" d="M26.75,7.35,20.49,8.71c0,.09,0,.19.06.29L27,8.32l1.18-.67Z"/><path class="cls-1" d="M25.4,5.75,20.25,8l.1.23,5.42-1.65,1.1-.88Z"/><path class="cls-1" d="M24.25,4.36,19.87,7.42l.14.2,4.76-2.46.49-.87Z"/><path class="cls-1" d="M22.76,3.35,19.4,6.89l.18.18,3.89-3,.3-.94Z"/><path class="cls-1" d="M19,6.57l3.11-3.63.14-1-.94.45L18.79,6.42Z"/><path class="cls-1" d="M18.1,6.07l.23.1L20.66,2l-.08-1-.82.57Z"/><path class="cls-1" d="M17.57,5.91l1.36-4.54-.25-1L18,1.12,17.3,5.85Z"/><path class="cls-1" d="M14.22,40.12a5.23,5.23,0,0,0,1-1l0,0a1.77,1.77,0,0,1-.36-.75c-.16.14-.34.29-.54.44a.14.14,0,0,1-.17,0c-.2-.15-.38-.29-.54-.44a1.77,1.77,0,0,1-.36.75l0,0A5.23,5.23,0,0,0,14.22,40.12Z"/><path class="cls-1" d="M8.37,39a4.89,4.89,0,0,0,1.11,1.1,5.23,5.23,0,0,0,1-1l0,0a1.77,1.77,0,0,1-.36-.75c-.16.14-.34.29-.54.44a.14.14,0,0,1-.17,0c-.2-.15-.38-.3-.54-.44a2.14,2.14,0,0,1-.59.48l.07.1Z"/><path class="cls-1" d="M13.31,38.31a.41.41,0,0,0-.05-.2h-.45a.4.4,0,0,0-.05.2,1.28,1.28,0,0,0,.28.59A1.28,1.28,0,0,0,13.31,38.31Z"/><path class="cls-1" d="M15.68,38.31a.4.4,0,0,0-.05-.2h-.45a.4.4,0,0,0-.05.2,1.28,1.28,0,0,0,.28.59A1.28,1.28,0,0,0,15.68,38.31Z"/><path class="cls-1" d="M10.94,38.31a.4.4,0,0,0-.05-.2h-.45a.41.41,0,0,0-.05.2,1.28,1.28,0,0,0,.28.59A1.28,1.28,0,0,0,10.94,38.31Z"/><path class="cls-1" d="M11.85,40.12a5.23,5.23,0,0,0,1-1l0,0a1.77,1.77,0,0,1-.36-.75c-.19.17-.38.32-.54.44a.14.14,0,0,1-.17,0c-.2-.15-.38-.29-.54-.44a1.77,1.77,0,0,1-.36.75l0,0A5.23,5.23,0,0,0,11.85,40.12Z"/><path class="cls-1" d="M16.59,40.12a5.23,5.23,0,0,0,1-1l0,0a1.77,1.77,0,0,1-.36-.75c-.19.17-.38.32-.54.44a.14.14,0,0,1-.17,0c-.2-.15-.38-.29-.54-.44a1.77,1.77,0,0,1-.36.75l0,0A5.23,5.23,0,0,0,16.59,40.12Z"/><path class="cls-1" d="M23.7,40.12A4.89,4.89,0,0,0,24.82,39l0-.05.08-.11a2.06,2.06,0,0,1-.58-.49c-.17.15-.35.3-.56.45a.14.14,0,0,1-.17,0c-.16-.12-.35-.26-.54-.44a1.77,1.77,0,0,1-.36.75l0,0A5.23,5.23,0,0,0,23.7,40.12Z"/><path class="cls-1" d="M22.79,38.31a.4.4,0,0,0-.05-.2H22.3a.41.41,0,0,0-.05.2,1.28,1.28,0,0,0,.28.59A1.28,1.28,0,0,0,22.79,38.31Z"/><path class="cls-1" d="M26.11,39.35l-.56-.18L25.18,39l-.09.13,0,.05a5.49,5.49,0,0,1-1.26,1.24.14.14,0,0,1-.17,0,6,6,0,0,1-1.1-1,6,6,0,0,1-1.1,1,.14.14,0,0,1-.17,0,6,6,0,0,1-1.1-1,6,6,0,0,1-1.1,1,.14.14,0,0,1-.17,0,6,6,0,0,1-1.1-1,6,6,0,0,1-1.1,1,.14.14,0,0,1-.17,0,6,6,0,0,1-1.1-1,6,6,0,0,1-1.1,1,.14.14,0,0,1-.17,0,6,6,0,0,1-1.1-1,6,6,0,0,1-1.1,1,.14.14,0,0,1-.17,0,6,6,0,0,1-1.1-1,6,6,0,0,1-1.1,1,.14.14,0,0,1-.17,0,5.49,5.49,0,0,1-1.26-1.24l0-.05L8,39l-.37.18h0l-.54.17c-2.17.74-3.47,1.77-3.81,3l26.61,0C29.56,41.11,28.27,40.09,26.11,39.35Z"/><path class="cls-1" d="M18.05,38.31a.4.4,0,0,0-.05-.2h-.45a.4.4,0,0,0-.05.2,1.28,1.28,0,0,0,.28.59A1.28,1.28,0,0,0,18.05,38.31Z"/><path class="cls-1" d="M19,40.12a5.23,5.23,0,0,0,1-1l0,0a1.77,1.77,0,0,1-.36-.75c-.16.14-.34.29-.54.44a.14.14,0,0,1-.17,0c-.2-.15-.38-.29-.54-.44a1.77,1.77,0,0,1-.36.75l0,0A5.23,5.23,0,0,0,19,40.12Z"/><path class="cls-1" d="M20.42,38.31a.4.4,0,0,0-.05-.2h-.45a.4.4,0,0,0-.05.2,1.28,1.28,0,0,0,.28.59A1.28,1.28,0,0,0,20.42,38.31Z"/><path class="cls-1" d="M21.33,40.12a5.23,5.23,0,0,0,1-1l0,0a1.77,1.77,0,0,1-.36-.75c-.16.14-.34.29-.54.44a.14.14,0,0,1-.17,0c-.2-.15-.38-.29-.54-.44a1.77,1.77,0,0,1-.36.75l0,0A5.23,5.23,0,0,0,21.33,40.12Z"/><path class="cls-1" d="M7.1,46.89a30.83,30.83,0,0,0,9.5,1.24,30.83,30.83,0,0,0,9.51-1.24c2.17-.74,3.47-1.74,3.81-3H3.3C3.64,45.14,4.94,46.16,7.1,46.89Z"/><path class="cls-1" d="M3.21,43.5a2.42,2.42,0,0,1,0-.63H30a2.41,2.41,0,0,1,0,.63Z"/><path class="cls-1" d="M1.35,40.63h0a1.2,1.2,0,0,1,1.07.95,1.35,1.35,0,0,1-.07.94.91.91,0,0,1-.58.5l-.21,0A1.2,1.2,0,0,1,.49,42.1a1.35,1.35,0,0,1,.07-.94.91.91,0,0,1,.58-.5l.21,0m0-.44a1.26,1.26,0,0,0-.33,0,1.56,1.56,0,0,0-1,2,1.63,1.63,0,0,0,1.49,1.27,1.26,1.26,0,0,0,.33,0,1.56,1.56,0,0,0,1-2,1.63,1.63,0,0,0-1.49-1.27Z"/><path class="cls-1" d="M2.2,43.47h0a.32.32,0,0,1,.13,0,.55.55,0,0,1,.25.43,1.73,1.73,0,0,1-.16,1,1.33,1.33,0,0,1-1,.87.32.32,0,0,1-.14,0,.55.55,0,0,1-.25-.43,1.73,1.73,0,0,1,.16-1,1.33,1.33,0,0,1,1-.87m0-.44A1.72,1.72,0,0,0,.83,44.16c-.38.83-.24,1.71.32,2a.76.76,0,0,0,.32.07,1.72,1.72,0,0,0,1.37-1.13c.38-.83.24-1.71-.32-2A.76.76,0,0,0,2.2,43Z"/><circle class="cls-1" cx="2.13" cy="43.19" r="0.76"/><rect class="cls-1" x="2.75" y="44.25" width="0.29" height="2.39"/><path class="cls-1" d="M3.63,47.07a.24.24,0,0,0,.07-.17.25.25,0,0,0,0-.14l-.76-1-.74.94a.27.27,0,0,0-.06.16.25.25,0,0,0,.07.17Z"/><rect class="cls-1" x="2.09" y="46.88" width="1.6" height="3.12"/><path class="cls-1" d="M31.85,40.63l.21,0a.91.91,0,0,1,.58.5,1.35,1.35,0,0,1,.07.94,1.2,1.2,0,0,1-1.07.95l-.21,0a.91.91,0,0,1-.58-.5,1.35,1.35,0,0,1-.07-.94,1.2,1.2,0,0,1,1.07-.95m0-.44a1.63,1.63,0,0,0-1.49,1.27,1.56,1.56,0,0,0,1,2,1.26,1.26,0,0,0,.33,0,1.63,1.63,0,0,0,1.49-1.27,1.56,1.56,0,0,0-1-2,1.26,1.26,0,0,0-.33,0Z"/><path class="cls-1" d="M31,43.47a1.33,1.33,0,0,1,1,.87c.29.64.19,1.26-.1,1.38a.32.32,0,0,1-.13,0,1.33,1.33,0,0,1-1-.87,1.73,1.73,0,0,1-.16-1,.55.55,0,0,1,.25-.43.32.32,0,0,1,.13,0M31,43a.76.76,0,0,0-.32.07c-.55.25-.69,1.13-.32,2a1.72,1.72,0,0,0,1.37,1.13.76.76,0,0,0,.32-.07c.55-.25.69-1.13.32-2A1.72,1.72,0,0,0,31,43Z"/><circle class="cls-1" cx="31.07" cy="43.19" r="0.76"/><rect class="cls-1" x="30.17" y="44.25" width="0.29" height="2.39"/><path class="cls-1" d="M29.58,47.07a.24.24,0,0,1-.07-.17.25.25,0,0,1,0-.14l.76-1,.74.94a.27.27,0,0,1,.06.16.24.24,0,0,1-.07.17Z"/><rect class="cls-1" x="29.51" y="46.88" width="1.6" height="3.12" transform="translate(60.62 96.88) rotate(180)"/><path class="cls-1" d="M19.81,31.78a2.15,2.15,0,0,0,.58,1.47,2.58,2.58,0,0,1,.69,1.52h-9a2.6,2.6,0,0,1,.69-1.52,2.16,2.16,0,0,0,.58-1.46h6.45m.29-.29h-7v.24a1.88,1.88,0,0,1-.5,1.31,3,3,0,0,0-.8,2H21.4a3,3,0,0,0-.81-2,1.87,1.87,0,0,1-.5-1.31v-.24Z"/><path class="cls-1" d="M16.6,8.88h0a.63.63,0,1,1-.1,0h.07m.05-.29H16.5a.92.92,0,1,0,.15,0Z"/><path class="cls-1" d="M16.87,11.56v1.18a6,6,0,0,0,0,.86l.6,4.83H15.66l.6-4.83c0-.21,0-.77,0-.86V11.56h.56m.29-.29H16v1.48c0,.08,0,.63,0,.82l-.65,5.16h2.51l-.64-5.16a5.73,5.73,0,0,1,0-.82V11.26Z"/><path class="cls-1" d="M18.26,24.26l.49,2.28v.05l0,0,.12.18a2.64,2.64,0,0,1,.43,1.3H13.85a2.67,2.67,0,0,1,.43-1.3l.13-.19,0,0v-.05l.49-2.27h3.32m.24-.29H14.7l-.53,2.5-.12.18a3.18,3.18,0,0,0-.51,1.76h6.12a3.17,3.17,0,0,0-.51-1.76L19,26.49,18.49,24Z"/><path class="cls-1" d="M17.54,19.5a1.71,1.71,0,0,0,.22.89l0,.06A1.34,1.34,0,0,1,18,21v1H15.14V21a1.35,1.35,0,0,1,.23-.5l0-.07a1.72,1.72,0,0,0,.22-.88h1.91m.29-.29h-2.5v.28a1.45,1.45,0,0,1-.18.74,1.77,1.77,0,0,0-.31.69v1.33h3.48V20.92a1.75,1.75,0,0,0-.31-.69,1.45,1.45,0,0,1-.18-.74v-.28Z"/><circle class="cls-1" cx="16.59" cy="20.81" r="0.56"/><circle class="cls-1" cx="16.59" cy="25.15" r="0.56"/><path class="cls-1" d="M18.6,22.92a.1.1,0,0,1,.1.1v.06a.1.1,0,0,1-.1.1h-4a.1.1,0,0,1-.1-.1V23a.1.1,0,0,1,.1-.1h4m0-.29h-4a.4.4,0,0,0-.39.39v.06a.4.4,0,0,0,.39.39h4a.4.4,0,0,0,.39-.39V23a.4.4,0,0,0-.39-.39Z"/><path class="cls-1" d="M15.75,35.06h-3l0-.05a.71.71,0,0,1-.17-.46.77.77,0,0,1,.15-.43l1.59-2.25,1.62,2.29a.75.75,0,0,1,.12.39.71.71,0,0,1-.17.46Zm-2.91-.29h2.77a.41.41,0,0,0,.07-.22.45.45,0,0,0-.08-.23l-1.38-1.94-1.35,1.91a.48.48,0,0,0-.1.27A.41.41,0,0,0,12.85,34.77Z"/><path class="cls-1" d="M18.11,35.06h-3L15,35a.71.71,0,0,1-.17-.46.77.77,0,0,1,.15-.43l1.59-2.25,1.62,2.29a.75.75,0,0,1,.12.39.71.71,0,0,1-.17.46Zm-2.91-.29H18a.41.41,0,0,0,.07-.22.45.45,0,0,0-.08-.23l-1.38-1.94-1.35,1.91a.48.48,0,0,0-.1.27A.41.41,0,0,0,15.2,34.77Z"/><path class="cls-1" d="M20.47,35.06h-3l0-.05a.71.71,0,0,1-.17-.46.77.77,0,0,1,.15-.43l1.59-2.25,1.62,2.29a.75.75,0,0,1,.12.39.71.71,0,0,1-.17.46Zm-2.91-.29h2.77a.41.41,0,0,0,.07-.22.45.45,0,0,0-.08-.23l-1.38-1.94-1.35,1.91a.48.48,0,0,0-.1.27A.41.41,0,0,0,17.56,34.77Z"/><path class="cls-1" d="M12.82,25.15a.83.83,0,0,1,.23.5h0a.82.82,0,0,1-.23.5l0-.07v0h0a.84.84,0,0,1-.09-.4.83.83,0,0,1,.09-.41h0v0l0-.07m-.3-.6a.59.59,0,0,1,.09.27.43.43,0,0,1-.09.28,1.2,1.2,0,0,0,0,1.13.43.43,0,0,1,.09.28.59.59,0,0,1-.09.27.73.73,0,0,0,.29-.19,1.08,1.08,0,0,0,0-1.86.73.73,0,0,0-.29-.19Z"/><path class="cls-1" d="M14.16,26.64a1,1,0,0,0-1-.79v-.29a1.31,1.31,0,0,1,1.27,1Z"/><path class="cls-1" d="M20.37,25.15l0,.07v0h0a.84.84,0,0,1,.09.4.83.83,0,0,1-.09.41h0v0l0,.07a.83.83,0,0,1-.23-.5h0a.82.82,0,0,1,.23-.5m.3-.6a.73.73,0,0,0-.29.19,1.08,1.08,0,0,0,0,1.86.73.73,0,0,0,.29.19.59.59,0,0,1-.09-.27.43.43,0,0,1,.09-.28,1.2,1.2,0,0,0,0-1.13.43.43,0,0,1-.09-.28.59.59,0,0,1,.09-.27Z"/><path class="cls-1" d="M19,26.6l-.28-.08a1.3,1.3,0,0,1,1.26-1v.29A1,1,0,0,0,19,26.6Z"/><path class="cls-1" d="M13.62,20.12a.83.83,0,0,1,.23.5h0a.82.82,0,0,1-.23.5l0-.07v0h0a.84.84,0,0,1-.09-.4.83.83,0,0,1,.09-.41h0v0l0-.07m-.3-.6a.59.59,0,0,1,.09.27.43.43,0,0,1-.09.28,1.2,1.2,0,0,0,0,1.13.43.43,0,0,1,.09.28.59.59,0,0,1-.09.27.73.73,0,0,0,.29-.19,1.08,1.08,0,0,0,0-1.86.73.73,0,0,0-.29-.19Z"/><path class="cls-1" d="M14.85,21.32a1,1,0,0,0-.88-.51v-.29a1.31,1.31,0,0,1,1.13.66Z"/><path class="cls-1" d="M19.56,20.12l0,.07v0h0a.84.84,0,0,1,.09.4.83.83,0,0,1-.09.41h0v0l0,.07a.83.83,0,0,1-.23-.5h0a.82.82,0,0,1,.23-.5m.3-.6a.73.73,0,0,0-.29.19,1.08,1.08,0,0,0,0,1.86.73.73,0,0,0,.29.19.59.59,0,0,1-.09-.27.43.43,0,0,1,.09-.28,1.2,1.2,0,0,0,0-1.13.43.43,0,0,1-.09-.28.59.59,0,0,1,.09-.27Z"/><path class="cls-1" d="M18.33,21.32l-.25-.15a1.31,1.31,0,0,1,1.13-.65v.29A1,1,0,0,0,18.33,21.32Z"/><path class="cls-1" d="M11.22,29a.83.83,0,0,1,.23.5h0a.83.83,0,0,1-.23.5l0-.07v0h0a.82.82,0,0,1-.1-.41.83.83,0,0,1,.09-.41h0v0l0-.07m-.3-.6a.59.59,0,0,1,.09.27.43.43,0,0,1-.09.28,1.2,1.2,0,0,0,0,1.13.43.43,0,0,1,.09.28.59.59,0,0,1-.09.27.73.73,0,0,0,.29-.19,1.08,1.08,0,0,0,0-1.86.73.73,0,0,0-.29-.19Z"/><path class="cls-1" d="M12.58,30.53a1,1,0,0,0-1-.86v-.29a1.31,1.31,0,0,1,1.29,1.11Z"/><path class="cls-1" d="M22,29,22,29v0h0a.82.82,0,0,1,.1.41.83.83,0,0,1-.09.41h0v0L22,30a.83.83,0,0,1-.23-.5h0A.82.82,0,0,1,22,29m.3-.6a.73.73,0,0,0-.29.19,1.08,1.08,0,0,0,0,1.86.73.73,0,0,0,.29.19.59.59,0,0,1-.09-.27.43.43,0,0,1,.09-.28,1.2,1.2,0,0,0,0-1.13.43.43,0,0,1-.09-.28.59.59,0,0,1,.09-.27Z"/><path class="cls-1" d="M20.63,30.54l-.29,0a1.31,1.31,0,0,1,1.29-1.11v.29A1,1,0,0,0,20.63,30.54Z"/><path class="cls-1" d="M19.79,29.2h0a.75.75,0,0,1,0,1.5H13.36a.75.75,0,0,1,0-1.5h6.43m0-.29H13.37a1,1,0,0,0,0,2.08h6.44a1,1,0,0,0,0-2.08Z"/><polygon class="cls-1" points="17.88 30.82 18.36 30.82 19.45 29.96 18.36 29.11 17.89 29.11 18.97 29.96 17.88 30.82"/><polygon class="cls-1" points="15.34 30.82 14.25 29.96 15.34 29.11 14.87 29.11 13.78 29.96 14.87 30.82 15.34 30.82"/><circle class="cls-1" cx="16.61" cy="29.96" r="0.56"/><path class="cls-1" d="M21.24,35.88h0a.75.75,0,0,1,0,1.5H11.9a.75.75,0,0,1,0-1.5h9.34m0-.29H11.91a1,1,0,0,0,0,2.08h9.35a1,1,0,0,0,0-2.08Z"/><polygon class="cls-1" points="18.89 37.6 19.36 37.6 20.59 36.64 19.45 35.74 18.98 35.74 20.12 36.64 18.89 37.6"/><polygon class="cls-1" points="17.71 37.6 18.19 37.6 19.42 36.64 18.27 35.74 17.81 35.74 18.95 36.64 17.71 37.6"/><polygon class="cls-1" points="15.46 37.6 14.22 36.64 15.37 35.74 14.9 35.74 13.75 36.64 14.99 37.6 15.46 37.6"/><polygon class="cls-1" points="14.33 37.6 13.1 36.64 14.25 35.74 13.77 35.74 12.63 36.64 13.86 37.6 14.33 37.6"/><circle class="cls-1" cx="16.59" cy="36.63" r="0.56"/><circle class="cls-1" cx="11.67" cy="36.63" r="0.56"/><circle class="cls-1" cx="21.51" cy="36.63" r="0.56"/><path class="cls-1" d="M19.45,28.12H18.32a.59.59,0,0,0,0-.19.66.66,0,0,0-.13-.37L18,27.24l.81-1-.08-.38L17.78,27l-1.19-1.52L15.41,27l-1-1.24-.1.35.89,1.13-.23.29a.68.68,0,0,0-.15.41.59.59,0,0,0,0,.19H13.66l0,.29H19.5Zm-3.83,0H15.2a.33.33,0,0,1-.06-.19.39.39,0,0,1,.09-.23l.18-.23.21.26a.36.36,0,0,1,.07.2A.33.33,0,0,1,15.62,28.12Zm1.75-.6a.68.68,0,0,0-.15.41.59.59,0,0,0,0,.19H15.94a.59.59,0,0,0,0-.19.66.66,0,0,0-.13-.37l-.26-.33,1-1.28,1,1.28Zm.63.6h-.42a.33.33,0,0,1-.06-.19.39.39,0,0,1,.09-.23l.18-.23.21.26a.36.36,0,0,1,.07.2A.33.33,0,0,1,18,28.12Z"/><polygon class="cls-1" points="18.37 31.66 17.77 32.5 17.17 31.66 16.81 31.66 17.77 33.01 18.73 31.66 18.37 31.66"/><polygon class="cls-1" points="16.01 31.66 15.41 32.5 14.81 31.66 14.46 31.66 15.41 33.01 16.37 31.66 16.01 31.66"/></svg>