<svg id="Layer_1" data-name="Layer 1" xmlns="http://www.w3.org/2000/svg" viewBox="0 0 174 60"><defs><style>.cls-1{fill:#dd5c8d;}.cls-2{fill:#58595b;}</style></defs><title>logo-cuti-cleaned</title><path class="cls-1" d="M172.23,12.52,155.47.46A2.09,2.09,0,0,0,154.34,0a.71.71,0,0,0-.33.07c-.34.17-.54.69-.54,1.42V26.84c0,.73.2,1.24.54,1.42s.88,0,1.46-.39l16.76-12.05a2.08,2.08,0,0,0,1-1.65,2.08,2.08,0,0,0-1-1.65"/><path class="cls-2" d="M165.1,27.9a2.09,2.09,0,0,0-1.14.46l-7.74,5.56a7.56,7.56,0,0,0-2.76,5.38V56.92A3.08,3.08,0,0,0,156.55,60h6.34A3.08,3.08,0,0,0,166,56.92V29.39c0-.73-.2-1.24-.54-1.42a.71.71,0,0,0-.33-.07"/><path class="cls-2" d="M120.89,60h6.34a3.08,3.08,0,0,0,3.08-3.08V24.77a4.38,4.38,0,0,1,4.37-4.37H144a3.09,3.09,0,0,0,3.08-3.08V11A3.08,3.08,0,0,0,144,7.9H104.09A3.08,3.08,0,0,0,101,11v6.34a3.08,3.08,0,0,0,3.08,3.08h9.34a4.38,4.38,0,0,1,4.37,4.37V56.92A3.08,3.08,0,0,0,120.89,60"/><path class="cls-2" d="M41.87,11A3.08,3.08,0,0,0,38.79,7.9H24.28A24.31,24.31,0,0,0,0,32.18v3.53A24.31,24.31,0,0,0,24.28,60H38.79a3.08,3.08,0,0,0,3.08-3.08V50.58a3.08,3.08,0,0,0-3.08-3.08H24.28A11.8,11.8,0,0,1,12.5,35.72V32.18A11.8,11.8,0,0,1,24.28,20.4H38.79a3.08,3.08,0,0,0,3.08-3.08Z"/><path class="cls-2" d="M94.64,37.22V11A3.08,3.08,0,0,0,91.56,7.9H85.22A3.08,3.08,0,0,0,82.14,11V37.22c0,8.57-3.76,10.2-10.7,10.2s-10.7-1.63-10.7-10.2V11A3.09,3.09,0,0,0,57.66,7.9H51.32A3.09,3.09,0,0,0,48.24,11V37.22c0,11.27,5.06,16.75,9.3,19.37,4.84,3,10.24,3.33,13.88,3.33s9.08-.35,13.92-3.33c4.24-2.61,9.3-8.1,9.3-19.37"/></svg>