<svg width="23" height="23" viewBox="0 0 23 23" fill="none" xmlns="http://www.w3.org/2000/svg">
<path d="M22.25 14.7V21.5C22.25 22.2 21.7 22.75 21 22.75H2C1.3 22.75 0.75 22.2 0.75 21.5V14.7C0.75 14 1.3 13.45 2 13.45C2.7 13.45 3.25 14 3.25 14.7V20.25H19.75V14.7C19.75 14 20.3 13.45 21 13.45C21.7 13.45 22.25 14 22.25 14.7ZM7.4 7.475L10.25 4.55V15.375C10.25 16.075 10.8 16.625 11.5 16.625C12.2 16.625 12.75 16.075 12.75 15.375V4.575L15.6 7.475C15.85 7.725 16.175 7.85 16.5 7.85C16.825 7.85 17.125 7.725 17.375 7.5C17.875 7.025 17.875 6.225 17.4 5.725L12.4 0.625C12.15 0.375 11.825 0.25 11.5 0.25C11.175 0.25 10.85 0.375 10.6 0.625L5.625 5.725C5.15 6.225 5.15 7 5.65 7.5C6.125 7.975 6.925 7.95 7.4 7.475Z" fill="#797D7F"/>
</svg>
