<svg width="21" height="21" viewBox="0 0 21 21" fill="none" xmlns="http://www.w3.org/2000/svg">
<path d="M20.5815 10.6902C20.5815 11.6413 19.8206 12.4022 18.8695 12.4022H12.0217V18.8696C12.0217 19.8206 11.2608 20.5815 10.3098 20.5815C9.35867 20.5815 8.59781 19.8206 8.59781 18.8696V12.4022H2.13041C1.17933 12.4022 0.418457 11.6413 0.418457 10.6902C0.418457 9.73912 1.17933 8.97826 2.13041 8.97826H8.59781V2.13043C8.59781 1.17934 9.35867 0.418472 10.3098 0.418472C11.2608 0.418472 12.0217 1.17934 12.0217 2.13043V8.97826H18.8695C19.8206 8.97826 20.5815 9.73912 20.5815 10.6902Z" fill="#2ECC71"/>
</svg>
