<svg width="23" height="23" viewBox="0 0 23 23" fill="none" xmlns="http://www.w3.org/2000/svg">
<path d="M19.6 7.6L18.825 22.05C18.8 22.575 18.35 23 17.825 23H5.175C4.65 23 4.2 22.575 4.175 22.05L3.4 7.6C3.375 7.05 3.8 6.575 4.35 6.55C4.9 6.525 5.375 6.95 5.4 7.5L6.125 21H16.9L17.625 7.5C17.65 6.95 18.125 6.525 18.675 6.55C19.2 6.575 19.625 7.05 19.6 7.6ZM22.25 4.25C22.25 4.8 21.8 5.25 21.25 5.25H1.75C1.2 5.25 0.75 4.8 0.75 4.25C0.75 3.7 1.2 3.25 1.75 3.25H7.25V1C7.25 0.525 7.575 0.25 8.05 0.25H14.95C15.425 0.25 15.75 0.525 15.75 1V3.25H21.25C21.8 3.25 22.25 3.7 22.25 4.25ZM9 3.25H14V2H9V3.25ZM9.425 19.5C9.925 19.5 10.3 19.025 10.3 18.55L10.05 7.75C10.05 7.275 9.65 6.875 9.15 6.875C8.675 6.875 8.275 7.275 8.3 7.775L8.55 18.6C8.55 19.075 8.95 19.5 9.425 19.5ZM13.55 19.5C14.025 19.5 14.425 19.1 14.425 18.625L14.675 7.825C14.675 7.35 14.3 6.925 13.825 6.925C13.325 6.925 12.95 7.3 12.925 7.775L12.675 18.575C12.65 19.075 13.05 19.5 13.55 19.5C13.525 19.5 13.525 19.5 13.55 19.5Z" fill="#C0392B"/>
</svg>
